<svg xmlns="http://www.w3.org/2000/svg" viewBox="0 0 600 600"  xmlns:v="https://vecta.io/nano"><linearGradient  gradientUnits="userSpaceOnUse" x1="0" y1="0" x2=".707" y2=".707"><stop offset="0" stop-color="#dddee2"/><stop offset=".181" stop-color="#d9dade"/><stop offset=".366" stop-color="#cdced2"/><stop offset=".553" stop-color="#b8babd"/><stop offset=".742" stop-color="#9b9ea0"/><stop offset=".93" stop-color="#777a7c"/><stop offset="1" stop-color="#676b6c"/></linearGradient><linearGradient id="B" gradientUnits="userSpaceOnUse" x1="388.818" y1="152.633" x2="204.966" y2="487.393"><stop offset=".122" stop-color="#f1ca6d"/><stop offset=".977" stop-color="#e6aa48"/></linearGradient><path d="M598.381 399.747c-1.562 4.315-4.198 8.13-7.684 11.084-3.486 2.965-7.822 5.059-12.753 5.93l-422.478 74.497c-15.495 2.731-31.106-7.641-34.879-23.178L60.034 218.552l-13.688-56.388c-.67-2.742-.914-5.462-.797-8.109.563-12.285 9.267-22.711 22.03-24.964l422.467-74.497c15.495-2.731 31.117 7.641 34.889 23.178l74.242 305.918c1.36 5.632.988 11.159-.797 16.058z" fill="url(#B)"/><linearGradient id="C" gradientUnits="userSpaceOnUse" x1="459.446" y1="-95.388" x2="306.412" y2="316.951"><stop offset="0" stop-color="#fff"/><stop offset="1" stop-color="#efedee" stop-opacity="0"/></linearGradient><path d="M598.381 399.747l-83.18-237.372s-31.882 37.727-81.83 9.565-26.568-69.609-26.568-69.609-319.01 33.402-361.254 51.723c.563-12.285 9.267-22.711 22.03-24.964l101.066-17.822 321.402-56.675c15.495-2.731 31.117 7.641 34.889 23.178l59.545 245.342 14.698 60.576c1.36 5.632.988 11.159-.797 16.058z" fill="url(#C)"/><linearGradient id="D" gradientUnits="userSpaceOnUse" x1="440.864" y1="-102.285" x2="287.831" y2="310.055"><stop offset="0" stop-color="#fff"/><stop offset="1" stop-color="#efedee" stop-opacity="0"/></linearGradient><path d="M315.408 145.903c0 23.07 69.609 22.317 67.483-1.594s-67.483-30.288-67.483 1.594z" fill="url(#D)"/><linearGradient id="E" gradientUnits="userSpaceOnUse" x1="488.561" y1="-84.583" x2="335.528" y2="327.757"><stop offset="0" stop-color="#fff"/><stop offset="1" stop-color="#efedee" stop-opacity="0"/></linearGradient><path d="M584.481 323.114c-1.095-1.435-1.987-3.146-2.625-5.122L507.029 84.509c-2.349-7.343-9.575-11.988-17.227-11.084l-321.157 37.844 321.402-56.675c15.495-2.731 31.117 7.641 34.889 23.178l59.545 245.342z" fill="url(#E)"/><linearGradient id="F" gradientUnits="userSpaceOnUse" x1="293.053" y1="238.527" x2="308.994" y2="530.778"><stop offset=".002" stop-color="#dd9931"/><stop offset="1" stop-color="#bf8334"/></linearGradient><path d="M577.94 416.765l-422.468 74.493c-15.501 2.733-31.114-7.639-34.885-23.175L46.344 162.159c-2.182-8.99.081-17.734 5.379-24.036L6.204 192.272c-5.298 6.302-7.56 15.046-5.379 24.036l74.243 305.923c3.77 15.536 19.383 25.909 34.885 23.175l422.468-74.493c6.528-1.151 11.995-4.446 15.853-9.035l45.519-54.149c-3.858 4.59-9.325 7.884-15.853 9.035z" fill="url(#F)"/><linearGradient id="G" gradientUnits="userSpaceOnUse" x1="8.065" y1="105.403" x2="45.791" y2="254.185"><stop offset="0" stop-color="#fff"/><stop offset="1" stop-color="#efedee" stop-opacity="0"/></linearGradient><path d="M6.204 192.272l45.519-54.149c-5.298 6.302-7.561 15.046-5.379 24.036L.825 216.308c-2.182-8.99.081-17.734 5.379-24.036z" fill="url(#G)"/><linearGradient id="H" gradientUnits="userSpaceOnUse" x1="309.97" y1="351.109" x2="351.063" y2="542.401"><stop offset=".082" stop-color="#b38536" stop-opacity="0"/><stop offset=".977" stop-color="#a96831"/></linearGradient><path d="M593.79 407.728l-45.517 54.146c-3.858 4.591-9.32 7.885-15.856 9.044L109.95 545.405c-15.495 2.731-31.106-7.641-34.879-23.178l45.517-54.146c3.773 15.537 19.384 25.909 34.879 23.178l422.478-74.497c6.525-1.148 11.988-4.442 15.845-9.033z" fill="url(#H)"/><linearGradient id="I" gradientUnits="userSpaceOnUse" x1="303.849" y1="334.842" x2="364.071" y2="554.473"><stop offset=".082" stop-color="#b38536" stop-opacity="0"/><stop offset=".977" stop-color="#662d1d"/></linearGradient><path d="M577.945 416.761l-45.527 54.157-57.791 10.192-284.312 50.129-80.364 14.166 45.517-54.146 80.364-14.166 284.312-50.14z" fill="url(#I)"/><linearGradient id="J" gradientUnits="userSpaceOnUse" x1="279.925" y1="308.215" x2="372.028" y2="517.218"><stop offset=".082" stop-color="#b38536" stop-opacity="0"/><stop offset=".977" stop-color="#662d1d"/></linearGradient><path d="M520.143 426.953l-45.517 54.157-284.312 50.129 45.517-54.146z" fill="url(#J)"/><linearGradient id="K" gradientUnits="userSpaceOnUse" x1="439.416" y1="35.496" x2="307.409" y2="358.65"><stop offset="0" stop-color="#e2b646" stop-opacity="0"/><stop offset=".977" stop-color="#d89633"/></linearGradient><path d="M590.698 410.831c-3.486 2.965-7.822 5.059-12.753 5.93l-422.478 74.497c-15.495 2.731-31.106-7.641-34.879-23.178L60.034 218.552c36.069 39.279 83.042 40.479 132.023 30.012 7.673-1.637 15.399-3.56 23.136-5.664 18.141 7.333 38.184 14.421 60.012 20.734 11.191 3.241 22.859 6.281 34.985 9.033 7.407 1.69 14.984 3.284 22.732 4.75a545.19 545.19 0 0 0 18.672-12.051c9.841-6.631 19.129-13.359 27.897-20.117 6.483-4.995 12.678-10 18.587-15.006 6.047 4.272 11.563 9.395 16.515 15.399 15.048 18.183 25.049 44.422 29.586 79.514 11.945 92.479 99.323 95.571 146.519 85.677z" opacity=".5" fill="url(#K)"/><linearGradient id="L" gradientUnits="userSpaceOnUse" x1="181.751" y1="131.643" x2="134.375" y2="247.619"><stop offset="0" stop-color="#e2b646" stop-opacity="0"/><stop offset=".977" stop-color="#d89633"/></linearGradient><path d="M189.655 231.889c-4.591.085-9.49.011-14.708-.255a248.37 248.37 0 0 1-10.925-.797c-52.339-5.059-69.152-25.484-53.041-40.182.595-.563 1.254-1.105 1.945-1.637 15.994 10.904 41.904 26.887 76.729 42.871z" opacity=".5" fill="url(#L)"/><linearGradient id="M" gradientUnits="userSpaceOnUse" x1="427.235" y1="26.877" x2="294.394" y2="352.072"><stop offset="0" stop-color="#e2b646" stop-opacity="0"/><stop offset=".977" stop-color="#d89633"/></linearGradient><path d="M304.78 282.923c-132.301-35.27-115.496 84.374-1.263 109.205s119.138-77.782 1.263-109.205z" opacity=".5" fill="url(#M)"/><linearGradient id="N" gradientUnits="userSpaceOnUse" x1="90.304" y1="227.113" x2="65.507" y2="287.689"><stop offset=".082" stop-color="#b38536" stop-opacity="0"/><stop offset=".977" stop-color="#a96831"/></linearGradient><path d="M73.27 273.231l-28.848 29.61 30.477-23.898 10.64-3.836z" fill="url(#N)"/><linearGradient id="O" gradientUnits="userSpaceOnUse" x1="119.782" y1="266.1" x2="51.059" y2="294.44"><stop offset="0" stop-color="#fff"/><stop offset="1" stop-color="#efedee" stop-opacity="0"/></linearGradient><path d="M75.563 282.309l-31.141 20.532 30.477-23.898 10.64-3.836z" fill="url(#O)"/><linearGradient id="P" gradientUnits="userSpaceOnUse" x1="78.546" y1="222.3" x2="53.749" y2="282.876"><stop offset=".082" stop-color="#b38536" stop-opacity="0"/><stop offset=".977" stop-color="#a96831"/></linearGradient><path d="M67.62 250.318l-38.713 47.26 41.059-38.04 13.929-4.32z" fill="url(#P)"/><linearGradient id="Q" gradientUnits="userSpaceOnUse" x1="113.949" y1="251.955" x2="45.226" y2="280.294"><stop offset="0" stop-color="#fff"/><stop offset="1" stop-color="#efedee" stop-opacity="0"/></linearGradient><path d="M28.906 297.578l41.851-34.82 13.137-7.54-13.929 4.32z" fill="url(#Q)"/><linearGradient id="R" gradientUnits="userSpaceOnUse" x1="214.856" y1="422.454" x2="228.671" y2="455.93"><stop offset=".082" stop-color="#b38536" stop-opacity="0"/><stop offset=".977" stop-color="#a96831"/></linearGradient><path d="M242.829 475.454l-13.64 15.684 18.984-16.226-1.094-8.33z" fill="url(#R)"/><linearGradient id="S" gradientUnits="userSpaceOnUse" x1="259.18" y1="466.582" x2="227.771" y2="484.904"><stop offset=".122" stop-color="#f1ca6d"/><stop offset=".977" stop-color="#e6aa48"/></linearGradient><path d="M252.663 474.199l-23.474 16.939 18.984-16.226-1.094-8.33z" fill="url(#S)"/><linearGradient id="T" gradientUnits="userSpaceOnUse" x1="402.517" y1="336.834" x2="431.157" y2="406.23"><stop offset=".082" stop-color="#b38536" stop-opacity="0"/><stop offset=".977" stop-color="#a96831"/></linearGradient><path d="M468.353 435.826l-39.41 44.745 44.754-45.288-1.094-8.33z" fill="url(#T)"/><linearGradient id="U" gradientUnits="userSpaceOnUse" x1="498.232" y1="426.078" x2="426.592" y2="467.868"><stop offset=".122" stop-color="#f1ca6d"/><stop offset=".977" stop-color="#e6aa48"/></linearGradient><path d="M478.187 434.57l-49.244 46.001 44.754-45.288-1.094-8.33z" fill="url(#U)"/><linearGradient id="V" gradientUnits="userSpaceOnUse" x1="512.054" y1="352.16" x2="530.873" y2="397.76"><stop offset=".082" stop-color="#b38536" stop-opacity="0"/><stop offset=".977" stop-color="#a96831"/></linearGradient><path d="M550.429 421.663l-17.583 23.53 22.927-24.072-1.094-8.33z" fill="url(#V)"/><linearGradient id="W" gradientUnits="userSpaceOnUse" x1="570.076" y1="413.643" x2="530.644" y2="436.645"><stop offset=".122" stop-color="#f1ca6d"/><stop offset=".977" stop-color="#e6aa48"/></linearGradient><path d="M560.263 420.408l-27.417 24.785 22.927-24.072-1.094-8.33z" fill="url(#W)"/><linearGradient id="X" gradientUnits="userSpaceOnUse" x1="231.903" y1="386.515" x2="255.246" y2="443.077"><stop offset=".082" stop-color="#b38536" stop-opacity="0"/><stop offset=".977" stop-color="#a96831"/></linearGradient><path d="M284.182 469.085l-30.147 34.338 35.491-34.88-1.094-8.33z" fill="url(#X)"/><linearGradient id="Y" gradientUnits="userSpaceOnUse" x1="309.212" y1="459.664" x2="252.012" y2="493.031"><stop offset=".122" stop-color="#f1ca6d"/><stop offset=".977" stop-color="#e6aa48"/></linearGradient><path d="M294.016 467.83l-39.981 35.594 35.491-34.88-1.094-8.33z" fill="url(#Y)"/><linearGradient id="Z" gradientUnits="userSpaceOnUse" x1="197.905" y1="37.351" x2="221.285" y2="386.99"><stop offset=".029" stop-color="#b38536" stop-opacity=".7"/><stop offset=".977" stop-color="#662d1d"/></linearGradient><path d="M157.219 435.253c.614-1.282 35.289-73.279 125.06-142.461l-25.569-10.699c-72.579 76.296-98.987 151.699-99.491 153.16z" fill="url(#Z)"/><linearGradient id="a" gradientUnits="userSpaceOnUse" x1="457.156" y1="20.015" x2="480.536" y2="369.654"><stop offset=".029" stop-color="#b38536" stop-opacity=".7"/><stop offset=".977" stop-color="#662d1d"/></linearGradient><path d="M567.681 362.878c-1.143-1.171-60.48-61.455-162.624-106.942l-18.49 18.468c114.614 33.144 179.954 87.506 181.114 88.474z" fill="url(#a)"/><linearGradient id="b" gradientUnits="userSpaceOnUse" x1="287.983" y1="40.444" x2="339.703" y2="489.625"><stop offset=".082" stop-color="#b38536" stop-opacity="0"/><stop offset=".977" stop-color="#662d1d"/></linearGradient><path d="M94.096 175.149s115.263 126.975 249.852 153.012c0 0 130.837-104.857 160.61-225.388 0 0-57.504 133.343-166.301 185.004 0 0-142.935-18.025-244.161-112.629z" fill="url(#b)"/><linearGradient id="c" gradientUnits="userSpaceOnUse" x1="292.111" y1="31.052" x2="315.491" y2="380.69"><stop offset=".029" stop-color="#b38536" stop-opacity=".7"/><stop offset=".977" stop-color="#662d1d"/></linearGradient><path d="M386.567 274.403l18.49-18.468c72.588-76.297 98.998-151.692 99.5-153.162-.612 1.291-35.287 73.288-125.067 142.472a534.25 534.25 0 0 1-27.9 20.117 542.47 542.47 0 0 1-18.668 12.055c-7.75-1.472-15.33-3.06-22.738-4.754a619.08 619.08 0 0 1-34.983-9.029c-114.605-33.146-179.945-87.507-181.107-88.485 1.146 1.18 60.481 61.455 162.615 106.944l25.569 10.699c18.536 7.245 38.271 13.901 59.128 19.582 16.51-12.27 31.527-25.053 45.161-37.971z" fill="url(#c)"/><linearGradient id="d" gradientUnits="userSpaceOnUse" x1="351.3" y1="196.097" x2="298.663" y2="150.789"><stop offset="0" stop-color="#7a4326"/><stop offset="1" stop-color="#462214"/></linearGradient><path d="M344.304 146.736c.471 12.963-6.3 47.151-35.004 47.788s-27.664-36.175-27.664-36.175 2.811-.179 7.392-.641a350.58 350.58 0 0 0 14.07-1.686c6.272-.874 13.376-2.054 20.526-3.592 5.177-1.111 10.382-2.408 15.323-3.926a124.96 124.96 0 0 0 5.358-1.768z" fill="url(#d)"/><path d="M323.622 152.429c.005 3.7-.166 9.401-1.258 10.884-1.642 2.239-16.044 4.21-16.559 2.448-.328-1.074-1.694-6.033-2.709-9.74 6.272-.874 13.376-2.054 20.526-3.592z" fill="#fff"/><path d="M309.3 194.529c9.24-.205 16.196-3.896 21.38-9.227-.963-.973-1.944-1.884-2.95-2.712-10.466-8.646-22.972-9.674-33.529-8.167-3.441.491-6.655 1.256-9.543 2.11 3.306 9.173 10.215 18.316 24.642 17.996z" fill="#d25d50"/><linearGradient id="e" gradientUnits="userSpaceOnUse" x1="311.721" y1="173.157" x2="293.303" y2="208.422"><stop offset="0" stop-color="#fbfcfb"/><stop offset="1" stop-color="#4b261b"/></linearGradient><path d="M309.3 194.529c9.24-.205 16.196-3.896 21.38-9.227-.963-.973-1.944-1.884-2.95-2.712-17.133 18.36-48.407 3.989-33.529-8.167-3.441.491-6.655 1.256-9.543 2.11 3.306 9.173 10.215 18.316 24.642 17.996z" fill="url(#e)"/><linearGradient id="f" gradientUnits="userSpaceOnUse" x1="256.835" y1="134.684" x2="245.249" y2="161.89"><stop offset="0" stop-color="#7a4326"/><stop offset="1" stop-color="#462214"/></linearGradient><circle cx="250.77" cy="148.926" r="17.062" fill="url(#f)"/><circle transform="matrix(.024364 -.999703 .999703 .024364 106.015419 395.868469)" cx="255.825" cy="143.619" r="6.6" fill="#fff"/><linearGradient id="g" gradientUnits="userSpaceOnUse" x1="374.615" y1="123.271" x2="359.076" y2="147.786"><stop offset="0" stop-color="#7a4326"/><stop offset="1" stop-color="#462214"/></linearGradient><circle cx="367.903" cy="133.86" r="17.062" fill="url(#g)"/><circle transform="matrix(.024364 -.999703 .999703 .024364 235.355759 498.267792)" cx="372.957" cy="128.553" r="6.6" fill="#fff"/><g fill="#d6797e"><ellipse transform="matrix(.988974 -.148089 .148089 .988974 -21.261764 60.622257)" cx="396.477" cy="173.094" rx="29.796" ry="13.955"/><ellipse transform="matrix(.988974 -.148089 .148089 .988974 -26.171843 36.843906)" cx="234.339" cy="194.179" rx="29.796" ry="13.955"/></g><linearGradient id="h" gradientUnits="userSpaceOnUse" x1="470.98" y1="322.99" x2="462.064" y2="271.272"><stop offset=".082" stop-color="#b38536" stop-opacity="0"/><stop offset=".977" stop-color="#662d1d"/></linearGradient><path d="M474.517 241.626c5.331 7.935-.25 37.472-11.136 52.07s-19.727 9.449-13.896-14.744-3.515-39.071-3.515-39.071 20.687-9.955 28.547 1.746z" fill="url(#h)"/><linearGradient id="i" gradientUnits="userSpaceOnUse" x1="435.773" y1="234.973" x2="479.162" y2="287.157"><stop offset=".122" stop-color="#f1ca6d"/><stop offset=".977" stop-color="#e6aa48"/></linearGradient><path d="M446.727 292.8c11.018 5.107 35.397-21.287 30.916-48.929-.668-4.141-2.353-7.429-4.633-9.888-10.34-11.229-32.892-5.452-27.467 13.582 4.529 15.871-1.735 28.803-2.611 37.028-.421 3.801.317 6.595 3.795 8.207z" fill="url(#i)"/><linearGradient id="j" gradientUnits="userSpaceOnUse" x1="491.383" y1="235.744" x2="425.127" y2="272.977"><stop offset="0" stop-color="#fff"/><stop offset="1" stop-color="#efedee" stop-opacity="0"/></linearGradient><path d="M456.847 231.161c9.33 2.77 7.559 32.37 1.346 44.308s-11.55 12.06-8.149-1.242 2.097-28.398.162-33.348 1.058-11.375 6.641-9.717z" opacity=".5" fill="url(#j)"/><linearGradient id="k" gradientUnits="userSpaceOnUse" x1="455.492" y1="245.766" x2="466.925" y2="293.552"><stop offset="0" stop-color="#e2b646" stop-opacity="0"/><stop offset=".977" stop-color="#d89633"/></linearGradient><path d="M446.727 292.8c11.018 5.107 35.397-21.287 30.916-48.929-.668-4.141-2.353-7.429-4.633-9.888 6.18 21.752-7.269 49.358-19.3 52.416-6.908 1.753-9.69.087-10.778-1.806-.421 3.801.317 6.595 3.795 8.207z" opacity=".5" fill="url(#k)"/><linearGradient id="l" gradientUnits="userSpaceOnUse" x1="205.998" y1="355.645" x2="207.205" y2="271.066"><stop offset=".082" stop-color="#b38536" stop-opacity="0"/><stop offset=".977" stop-color="#662d1d"/></linearGradient><path d="M187.305 292.267c-3.255 8.988 9.299 36.301 23.389 47.835s21.426 4.402 9.921-17.665-6.031-38.763-6.031-38.763-22.479-4.66-27.279 8.593z" fill="url(#l)"/><linearGradient id="m" gradientUnits="userSpaceOnUse" x1="235.095" y1="326.651" x2="185.855" y2="277.057"><stop offset=".122" stop-color="#f1ca6d"/><stop offset=".977" stop-color="#e6aa48"/></linearGradient><path d="M237.179 329.436c-7.728 9.368-41.121-3.897-49.027-30.761-1.188-4.023-1.089-7.716-.096-10.92 4.471-14.595 27.305-19.133 30.639.376 2.776 16.27 14.013 25.224 18.359 32.262 2.022 3.245 2.565 6.084.125 9.042z" fill="url(#m)"/><linearGradient id="n" gradientUnits="userSpaceOnUse" x1="220.124" y1="297.327" x2="195.221" y2="317.251"><stop offset="0" stop-color="#fff"/><stop offset="1" stop-color="#efedee" stop-opacity="0"/></linearGradient><path d="M201.413 278.226c-7.216 6.531 7.174 32.458 17.936 40.538s15.628 5.884 6.811-4.642-14.165-24.702-14.559-30.003-5.871-9.8-10.188-5.893z" opacity=".5" fill="url(#n)"/><linearGradient id="o" gradientUnits="userSpaceOnUse" x1="293.259" y1="452.202" x2="280.356" y2="429.559"><stop offset="0" stop-color="#e2b646" stop-opacity="0"/><stop offset=".977" stop-color="#d89633"/></linearGradient><path d="M237.179 329.436c-7.728 9.368-41.121-3.897-49.027-30.761-1.188-4.023-1.089-7.716-.096-10.92 3.829 22.287 27.888 41.368 40.059 38.926 6.988-1.405 8.775-4.11 8.938-6.287 2.022 3.245 2.565 6.084.125 9.042z" opacity=".5" fill="url(#o)"/></svg>